<svg width="168" height="151" viewBox="0 0 168 151" fill="none" xmlns="http://www.w3.org/2000/svg">
<path d="M38.8371 0.666748C38.2478 22.4692 21.7487 38.9683 0.5354 38.9683V50.7535C29.409 51.3428 51.8007 28.951 50.6222 0.666748H38.8371ZM0.5354 14.2197V26.0047C15.2668 25.4155 25.8734 14.8089 25.8734 0.666748H14.0883C12.9098 7.73783 7.60648 13.0411 0.5354 14.2197ZM167.464 38.9683C146.252 38.9683 129.753 22.4692 129.162 0.666748H117.377C116.199 28.951 138.591 51.3428 167.464 50.7535V38.9683ZM167.464 26.0047V14.2197C160.393 13.0411 155.09 7.73783 153.912 0.666748H142.127C142.127 14.8089 152.733 25.4155 167.464 26.0047ZM142.333 150.667V84.0001H167.333L84 9.00008L0.666651 84.0001H25.6667V150.667H142.333ZM84 31.5001L125.667 69.0001V134H42.3333V69.0001L84 31.5001Z" fill="white"/>
</svg>
