<svg width="54" height="49" viewBox="0 0 54 49" fill="none" xmlns="http://www.w3.org/2000/svg">
<path d="M45.6666 14.0001V8.66675C45.6666 4.26675 42.0666 0.666748 37.6666 0.666748H16.3333C11.9333 0.666748 8.33325 4.26675 8.33325 8.66675V14.0001C3.93325 14.0001 0.333252 17.6001 0.333252 22.0001V35.3334C0.333252 39.7334 3.93325 43.3334 8.33325 43.3334V48.6667H13.6666V43.3334H40.3333V48.6667H45.6666V43.3334C50.0666 43.3334 53.6666 39.7334 53.6666 35.3334V22.0001C53.6666 17.6001 50.0666 14.0001 45.6666 14.0001ZM13.6666 8.66675C13.6666 7.20008 14.8666 6.00008 16.3333 6.00008H37.6666C39.1333 6.00008 40.3333 7.20008 40.3333 8.66675V16.0801C38.7066 17.5467 37.6666 19.6534 37.6666 22.0001V27.3334H16.3333V22.0001C16.3333 19.6534 15.2933 17.5467 13.6666 16.0801V8.66675ZM48.3333 35.3334C48.3333 36.8001 47.1333 38.0001 45.6666 38.0001H8.33325C6.86659 38.0001 5.66659 36.8001 5.66659 35.3334V22.0001C5.66659 20.5334 6.86659 19.3334 8.33325 19.3334C9.79992 19.3334 10.9999 20.5334 10.9999 22.0001V32.6667H42.9999V22.0001C42.9999 20.5334 44.1999 19.3334 45.6666 19.3334C47.1333 19.3334 48.3333 20.5334 48.3333 22.0001V35.3334Z" fill="white"/>
</svg>
