<svg width="54" height="49" viewBox="0 0 54 49" fill="none" xmlns="http://www.w3.org/2000/svg">
<path d="M12.5478 0.333374C12.3592 7.31017 7.0795 12.5899 0.29126 12.5899V16.3611C9.53081 16.5497 16.6961 9.38433 16.319 0.333374H12.5478ZM0.29126 4.67031V8.44153C5.00531 8.25297 8.39942 4.85887 8.39942 0.333374H4.62819C4.25107 2.59612 2.55401 4.29316 0.29126 4.67031ZM53.7085 12.5899C46.9205 12.5899 41.6407 7.31017 41.4519 0.333374H37.6807C37.3037 9.38433 44.469 16.5497 53.7085 16.3611V12.5899ZM53.7085 8.44153V4.67031C51.4458 4.29316 49.7487 2.59612 49.3717 0.333374H45.6005C45.6005 4.85887 48.9946 8.25297 53.7085 8.44153ZM45.6666 48.3334V27H53.6666L26.9999 3.00004L0.33326 27H8.33326V48.3334H45.6666ZM26.9999 10.2L40.3333 22.2V43H13.6666V22.2L26.9999 10.2Z" fill="white"/>
</svg>
