<svg width="58" height="58" viewBox="0 0 58 58" fill="none" xmlns="http://www.w3.org/2000/svg">
<path d="M57.2935 45.9601L45.9601 57.2935L32.0935 43.4268L36.8135 38.7068L39.4801 41.3735L46.0668 34.7601L49.8535 38.5468L45.9601 42.3335L48.7868 45.0001L52.5735 41.2668L57.2935 45.9601ZM14.6268 25.8801L0.706787 12.0401L12.0401 0.706787L16.7335 5.42679L10.1468 12.0401L13.0001 14.8668L19.5601 8.25345L23.3468 12.0401L19.5601 15.8001L22.2268 18.4668L14.6268 25.8801ZM34.4935 21.0001L37.0001 23.4801L12.7868 47.6668H10.3335V45.2135L34.4935 21.0001ZM44.1201 5.00012C43.4535 5.00012 42.7601 5.24012 42.2268 5.77345L37.3201 10.6535L47.3201 20.6535L52.2268 15.6668C53.2668 14.6268 53.2668 13.0001 52.2268 11.9068L45.9868 5.77345C45.4801 5.26679 44.8135 5.00012 44.1201 5.00012ZM34.4935 13.4801L5.00012 43.0001V53.0001H15.0001L44.4935 23.4801L34.4935 13.4801Z" fill="white"/>
</svg>
