<svg width="60" height="60" viewBox="0 0 60 60" fill="none" xmlns="http://www.w3.org/2000/svg">
<path d="M38.0001 59.3334H32.6667V54.0001H38.0001V59.3334ZM48.6667 54.0001H43.3334V59.3334H48.6667V54.0001ZM38.0001 43.3334H32.6667V48.6667H38.0001V43.3334ZM16.6667 54.0001H11.3334V59.3334H16.6667V54.0001ZM16.6667 43.3334H11.3334V48.6667H16.6667V43.3334ZM48.6667 43.3334H43.3334V48.6667H48.6667V43.3334ZM38.0001 32.6667H32.6667V38.0001H38.0001V32.6667ZM48.6667 32.6667H43.3334V38.0001H48.6667V32.6667ZM54.0001 22.0001C55.4146 22.0001 56.7711 22.562 57.7713 23.5622C58.7715 24.5624 59.3334 25.9189 59.3334 27.3334V59.3334H54.0001V27.3334H27.3334V59.3334H22.0001V38.0001H6.00008V59.3334H0.666748V38.0001C0.666748 36.5856 1.22865 35.229 2.22885 34.2288C3.22904 33.2287 4.58559 32.6667 6.00008 32.6667H22.0001V27.3334C22.0001 25.9189 22.562 24.5624 23.5622 23.5622C24.5624 22.562 25.9189 22.0001 27.3334 22.0001V16.6667C27.3334 15.2523 27.8953 13.8957 28.8955 12.8955C29.8957 11.8953 31.2523 11.3334 32.6667 11.3334H38.0001V0.666748H43.3334V11.3334H48.6667C50.0812 11.3334 51.4378 11.8953 52.438 12.8955C53.4382 13.8957 54.0001 15.2523 54.0001 16.6667V22.0001ZM48.6667 22.0001V16.6667H32.6667V22.0001H48.6667Z" fill="white"/>
</svg>
