<svg width="54" height="48" viewBox="0 0 54 48" fill="none" xmlns="http://www.w3.org/2000/svg">
<path d="M42.9999 32H37.6666V37.3333H42.9999M42.9999 21.3333H37.6666V26.6667H42.9999M48.3332 42.6667H26.9999V37.3333H32.3333V32H26.9999V26.6667H32.3333V21.3333H26.9999V16H48.3332M21.6666 10.6667H16.3333V5.33333H21.6666M21.6666 21.3333H16.3333V16H21.6666M21.6666 32H16.3333V26.6667H21.6666M21.6666 42.6667H16.3333V37.3333H21.6666M10.9999 10.6667H5.66658V5.33333H10.9999M10.9999 21.3333H5.66658V16H10.9999M10.9999 32H5.66658V26.6667H10.9999M10.9999 42.6667H5.66658V37.3333H10.9999M26.9999 10.6667V0H0.333252V48H53.6666V10.6667H26.9999Z" fill="white"/>
</svg>
