<svg width="64" height="51" viewBox="0 0 64 51" fill="none" xmlns="http://www.w3.org/2000/svg">
<path d="M26.6667 0.333252V6.35992L32 9.90659V5.66659H58.6667V45.6666H45.3333V50.9999H64V0.333252H26.6667ZM20 8.33325L0 21.6666V50.9999H40V21.6666L20 8.33325ZM37.3333 10.9999V13.4799L41.6267 16.3333H42.6667V10.9999H37.3333ZM48 10.9999V16.3333H53.3333V10.9999H48ZM20 14.9999L34.6667 24.3333V45.6666H26.6667V29.6666H13.3333V45.6666H5.33333V24.3333L20 14.9999ZM48 21.6666V26.9999H53.3333V21.6666H48ZM48 32.3333V37.6666H53.3333V32.3333H48Z" fill="white"/>
</svg>
