<svg width="48" height="48" viewBox="0 0 48 48" fill="none" xmlns="http://www.w3.org/2000/svg">
<path d="M42.6667 24C42.6667 28.9067 38.6667 32.9067 33.76 32.9067C31.3867 32.9067 29.1733 32 27.4933 30.2933L25.8933 28.6933L28.72 25.8933C29.44 26.6667 30.32 27.4667 30.32 27.4667C31.2267 28.4 32.48 28.9067 33.7867 28.9067C36.48 28.9067 38.6667 26.6667 38.6667 24C38.6667 21.3333 36.48 19.0933 33.7867 19.0933C32.48 19.0933 31.2267 19.6267 30.32 20.5333L20.5333 30.2933C18.8533 32 16.6133 32.9067 14.24 32.9067C9.33333 32.9067 5.33333 28.9067 5.33333 24C5.33333 19.0933 9.33333 15.0933 14.24 15.0933C16.6133 15.0933 18.8533 16 20.5333 17.7067L22.1067 19.3067L19.28 22.1333L17.7067 20.5333C16.7733 19.6267 15.5467 19.0933 14.24 19.0933C11.52 19.0933 9.33333 21.3333 9.33333 24C9.33333 26.6667 11.52 28.9067 14.24 28.9067C15.5467 28.9067 16.7733 28.4 17.7067 27.4667L27.4933 17.7067C29.1733 16 31.3867 15.0933 33.76 15.0933C38.6667 15.0933 42.6667 19.0933 42.6667 24ZM48 5.33333V42.6667C48 45.6267 45.6267 48 42.6667 48H5.33333C2.4 48 0 45.6267 0 42.6667V5.33333C0 2.37333 2.37333 0 5.33333 0H42.6667C45.6 0 48 2.37333 48 5.33333ZM42.6667 5.33333H5.33333V42.6667H42.6667V5.33333Z" fill="white"/>
</svg>
