<svg width="48" height="48" viewBox="0 0 48 48" fill="none" xmlns="http://www.w3.org/2000/svg">
<path d="M0 5.33333V48H16V44H10.6667V40H16V36H5.33333V32H16V28H10.6667V24H16V20H5.33333V16H16V5.33333H20V16H24V10.6667H28V16H32V5.33333H36V16H40V10.6667H44V16H48V0H5.33333C3.91885 0 2.56229 0.561903 1.5621 1.5621C0.561903 2.56229 0 3.91885 0 5.33333ZM8 10.6667C7.29276 10.6667 6.61448 10.3857 6.11438 9.88562C5.61429 9.38552 5.33333 8.70724 5.33333 8C5.33333 7.29276 5.61429 6.61448 6.11438 6.11438C6.61448 5.61429 7.29276 5.33333 8 5.33333C8.70724 5.33333 9.38552 5.61429 9.88562 6.11438C10.3857 6.61448 10.6667 7.29276 10.6667 8C10.6667 8.70724 10.3857 9.38552 9.88562 9.88562C9.38552 10.3857 8.70724 10.6667 8 10.6667Z" fill="#C1AE69"/>
</svg>
