<svg width="24" height="24" viewBox="0 0 24 24" fill="none" xmlns="http://www.w3.org/2000/svg">
<g clip-path="url(#clip0_1624_1526)">
<path d="M6.08577 23.9151C4.65848 23.8502 3.88314 23.6127 3.36743 23.4115C2.6841 23.1455 2.19693 22.8288 1.68407 22.3166C1.17122 21.8045 0.853806 21.3173 0.589176 20.634C0.388029 20.1183 0.150504 19.3429 0.0855946 17.9157C0.0142658 16.3728 0 15.9099 0 12.0011C0 8.09225 0.0156923 7.63004 0.0848813 6.08577C0.14979 4.65848 0.388742 3.88457 0.588463 3.36743C0.854519 2.6841 1.17193 2.19693 1.68336 1.68336C2.1955 1.17122 2.68268 0.853092 3.36672 0.588463C3.88243 0.387315 4.65777 0.14979 6.08506 0.0848813C7.62861 0.0142658 8.09225 0 11.9996 0C15.9085 0 16.3707 0.0156923 17.9149 0.0848813C19.3422 0.14979 20.1161 0.388742 20.6333 0.588463C21.3166 0.853092 21.8038 1.17122 22.3166 1.68336C22.8295 2.1955 23.1455 2.68339 23.4115 3.36672C23.6127 3.88243 23.8502 4.65777 23.9151 6.08506C23.9857 7.62933 24 8.09154 24 12.0004C24 15.9077 23.9857 16.3714 23.9151 17.9157C23.8502 19.3429 23.6113 20.1183 23.4115 20.634C23.1455 21.3173 22.8288 21.8045 22.3166 22.3166C21.8045 22.8288 21.3166 23.1455 20.6333 23.4115C20.1176 23.6127 19.3422 23.8502 17.9149 23.9151C16.3721 23.9857 15.9085 24 11.9996 24C8.09225 24 7.62862 23.9864 6.08577 23.9151Z" fill="#C1AE69"/>
<path d="M6.08577 23.9151C4.65848 23.8502 3.88314 23.6127 3.36743 23.4115C2.6841 23.1455 2.19693 22.8288 1.68407 22.3166C1.17122 21.8045 0.853806 21.3173 0.589176 20.634C0.388029 20.1183 0.150504 19.3429 0.0855946 17.9157C0.0142658 16.3728 0 15.9099 0 12.0011C0 8.09225 0.0156923 7.63004 0.0848813 6.08577C0.14979 4.65848 0.388742 3.88457 0.588463 3.36743C0.854519 2.6841 1.17193 2.19693 1.68336 1.68336C2.1955 1.17122 2.68268 0.853092 3.36672 0.588463C3.88243 0.387315 4.65777 0.14979 6.08506 0.0848813C7.62861 0.0142658 8.09225 0 11.9996 0C15.9085 0 16.3707 0.0156923 17.9149 0.0848813C19.3422 0.14979 20.1161 0.388742 20.6333 0.588463C21.3166 0.853092 21.8038 1.17122 22.3166 1.68336C22.8295 2.1955 23.1455 2.68339 23.4115 3.36672C23.6127 3.88243 23.8502 4.65777 23.9151 6.08506C23.9857 7.62933 24 8.09154 24 12.0004C24 15.9077 23.9857 16.3714 23.9151 17.9157C23.8502 19.3429 23.6113 20.1183 23.4115 20.634C23.1455 21.3173 22.8288 21.8045 22.3166 22.3166C21.8045 22.8288 21.3166 23.1455 20.6333 23.4115C20.1176 23.6127 19.3422 23.8502 17.9149 23.9151C16.3721 23.9857 15.9085 24 11.9996 24C8.09225 24 7.62862 23.9864 6.08577 23.9151Z" fill="#C1AE69"/>
<path d="M9.05294 12.0509C9.05294 10.4095 10.3832 9.07859 12.0245 9.07859C13.6658 9.07859 14.9968 10.4095 14.9968 12.0509C14.9968 13.6922 13.6658 15.0231 12.0245 15.0231C10.3832 15.0231 9.05294 13.6922 9.05294 12.0509ZM7.44619 12.0509C7.44619 14.5795 9.49589 16.6292 12.0245 16.6292C14.5531 16.6292 16.6028 14.5795 16.6028 12.0509C16.6028 9.52226 14.5531 7.47255 12.0245 7.47255C9.49589 7.47255 7.44626 9.52212 7.44626 12.0509M15.7142 7.29102C15.7141 7.50264 15.7768 7.70952 15.8943 7.88552C16.0118 8.06151 16.1788 8.19872 16.3743 8.27978C16.5698 8.36083 16.7849 8.38211 16.9924 8.34091C17.2 8.29971 17.3907 8.19788 17.5404 8.04831C17.6901 7.89874 17.792 7.70813 17.8334 7.5006C17.8748 7.29307 17.8537 7.07794 17.7728 6.8824C17.6919 6.68686 17.5548 6.51971 17.3789 6.40207C17.203 6.28444 16.9962 6.2216 16.7846 6.22152H16.7841C16.5005 6.22165 16.2285 6.33436 16.0279 6.53489C15.8273 6.73542 15.7144 7.00737 15.7142 7.29102ZM8.42239 19.3084C7.55311 19.2688 7.08063 19.124 6.76664 19.0017C6.35036 18.8397 6.05335 18.6466 5.74107 18.3348C5.4288 18.0229 5.23549 17.7262 5.07415 17.3099C4.95175 16.9961 4.80695 16.5235 4.76743 15.6542C4.72421 14.7144 4.71558 14.432 4.71558 12.051C4.71558 9.66998 4.72492 9.38845 4.76743 8.44783C4.80702 7.57855 4.95289 7.10685 5.07415 6.79208C5.23621 6.3758 5.42922 6.07879 5.74107 5.76651C6.05292 5.45424 6.34965 5.26093 6.76664 5.09959C7.08049 4.97719 7.55311 4.83239 8.42239 4.79287C9.36222 4.74965 9.64454 4.74102 12.0245 4.74102C14.4045 4.74102 14.6871 4.75022 15.6277 4.79302C16.497 4.8326 16.9687 4.97847 17.2834 5.09973C17.6997 5.26108 17.9967 5.45481 18.309 5.76666C18.6213 6.0785 18.8139 6.37595 18.9759 6.79222C19.0983 7.10607 19.2431 7.57869 19.2826 8.44798C19.3259 9.38859 19.3345 9.67012 19.3345 12.0512C19.3345 14.4322 19.3259 14.7137 19.2826 15.6543C19.243 16.5236 19.0975 16.9961 18.9759 17.3101C18.8139 17.7264 18.6208 18.0234 18.309 18.3349C17.9971 18.6465 17.6997 18.8398 17.2834 19.0019C16.9696 19.1243 16.497 19.2691 15.6277 19.3086C14.6878 19.3518 14.4055 19.3604 12.0245 19.3604C9.64347 19.3604 9.36194 19.3518 8.42239 19.3086M8.34857 3.18876C7.3994 3.23199 6.7508 3.38249 6.18438 3.6029C5.59813 3.83051 5.10118 4.13587 4.60495 4.63132C4.10871 5.12676 3.80414 5.62378 3.57653 6.21075C3.35612 6.77753 3.20562 7.42576 3.16239 8.37494C3.11846 9.32561 3.1084 9.62954 3.1084 12.0509C3.1084 14.4722 3.11846 14.7761 3.16239 15.7268C3.20562 16.676 3.35612 17.3242 3.57653 17.891C3.80414 18.4772 4.10878 18.9752 4.60495 19.4704C5.10111 19.9656 5.59742 20.2706 6.18438 20.4988C6.75187 20.7192 7.3994 20.8697 8.34857 20.913C9.29974 20.9562 9.60317 20.967 12.0245 20.967C14.4458 20.967 14.7498 20.9569 15.7004 20.913C16.6497 20.8697 17.2978 20.7192 17.8646 20.4988C18.4509 20.2706 18.9478 19.9659 19.444 19.4704C19.9403 18.975 20.2442 18.4772 20.4725 17.891C20.6929 17.3242 20.8441 16.676 20.8866 15.7268C20.9298 14.7754 20.9399 14.4722 20.9399 12.0509C20.9399 9.62954 20.9298 9.32561 20.8866 8.37494C20.8434 7.42569 20.6929 6.77717 20.4725 6.21075C20.2442 5.6245 19.9395 5.12755 19.444 4.63132C18.9486 4.13508 18.4509 3.83051 17.8653 3.6029C17.2978 3.38249 16.6496 3.23127 15.7011 3.18876C14.7503 3.14532 14.4465 3.13477 12.0256 3.13477C9.6046 3.13477 9.3001 3.14482 8.34893 3.18876" fill="#131313"/>
</g>
<defs>
<clipPath id="clip0_1624_1526">
<rect width="24" height="24" fill="white"/>
</clipPath>
</defs>
</svg>
